REM DIRINDEX 1\2\6,1\2\7,1\2\8,1\2\9,1\3\10,1\3\11,1\4\12,1\4\13,1\4\14,1\5\15,1\5\16,1\5\17
REM DIRNAME folder01,folder02,folder03,folder04,folder05,folder06,folder07,folder08,folder09,folder10,folder11,folder12,folder13,folder14,folder15,folder16,folder17
TITLE ""
FILE "1900_2_sec13_1253_1270.mp3" MP3
  TRACK 01 AUDIO
    TITLE "0:"
    INDEX 01 00:00:00
  TRACK 02 AUDIO
    TITLE "13:cjc020_4643"
    INDEX 01 00:00:17
  TRACK 03 AUDIO
    TITLE "0:"
    INDEX 01 00:01:38
  TRACK 04 AUDIO
    TITLE "14:cjc020_4644"
    INDEX 01 00:01:42
  TRACK 05 AUDIO
    TITLE "0:"
    INDEX 01 00:04:25
  TRACK 06 AUDIO
    TITLE "13:cjc020_4645"
    INDEX 01 00:05:05
  TRACK 07 AUDIO
    TITLE "0:"
    INDEX 01 00:06:22
  TRACK 08 AUDIO
    TITLE "14:cjc020_4646"
    INDEX 01 00:06:31
  TRACK 09 AUDIO
    TITLE "0:"
    INDEX 01 00:08:48
  TRACK 10 AUDIO
    TITLE "13:cjc020_4647"
    INDEX 01 00:09:26
  TRACK 11 AUDIO
    TITLE "0:"
    INDEX 01 00:10:37
  TRACK 12 AUDIO
    TITLE "14:cjc020_4648"
    INDEX 01 00:10:39
  TRACK 13 AUDIO
    TITLE "0:"
    INDEX 01 00:12:69
  TRACK 14 AUDIO
    TITLE "13:cjc020_4649"
    INDEX 01 00:13:49
  TRACK 15 AUDIO
    TITLE "0:"
    INDEX 01 00:14:56
  TRACK 16 AUDIO
    TITLE "14:cjc020_4650"
    INDEX 01 00:14:58
  TRACK 17 AUDIO
    TITLE "0:"
    INDEX 01 00:18:19
  TRACK 18 AUDIO
    TITLE "13:cjc020_4651"
    INDEX 01 00:18:74
  TRACK 19 AUDIO
    TITLE "0:"
    INDEX 01 00:20:22
  TRACK 20 AUDIO
    TITLE "14:cjc020_4652"
    INDEX 01 00:20:26
  TRACK 21 AUDIO
    TITLE "0:"
    INDEX 01 00:23:40
  TRACK 22 AUDIO
    TITLE "13:cjc020_4653"
    INDEX 01 00:24:22
  TRACK 23 AUDIO
    TITLE "0:"
    INDEX 01 00:25:35
  TRACK 24 AUDIO
    TITLE "14:cjc020_4654"
    INDEX 01 00:25:37
  TRACK 25 AUDIO
    TITLE "0:"
    INDEX 01 00:27:41
  TRACK 26 AUDIO
    TITLE "13:cjc020_4655"
    INDEX 01 00:28:19
  TRACK 27 AUDIO
    TITLE "0:"
    INDEX 01 00:29:40
  TRACK 28 AUDIO
    TITLE "14:cjc020_4656"
    INDEX 01 00:29:44
  TRACK 29 AUDIO
    TITLE "0:"
    INDEX 01 00:32:17
  TRACK 30 AUDIO
    TITLE "13:cjc020_4657"
    INDEX 01 00:32:70
  TRACK 31 AUDIO
    TITLE "0:"
    INDEX 01 00:34:02
  TRACK 32 AUDIO
    TITLE "14:cjc020_4658"
    INDEX 01 00:34:08
  TRACK 33 AUDIO
    TITLE "0:"
    INDEX 01 00:36:25
  TRACK 34 AUDIO
    TITLE "13:cjc020_4659"
    INDEX 01 00:37:08
  TRACK 35 AUDIO
    TITLE "0:"
    INDEX 01 00:38:10
  TRACK 36 AUDIO
    TITLE "14:cjc020_4660"
    INDEX 01 00:38:14
  TRACK 37 AUDIO
    TITLE "0:"
    INDEX 01 00:40:38
  TRACK 38 AUDIO
    TITLE "13:cjc020_4661"
    INDEX 01 00:41:20
  TRACK 39 AUDIO
    TITLE "0:"
    INDEX 01 00:42:14
  TRACK 40 AUDIO
    TITLE "14:cjc020_4662"
    INDEX 01 00:42:19
  TRACK 41 AUDIO
    TITLE "0:"
    INDEX 01 00:46:45
  TRACK 42 AUDIO
    TITLE "13:cjc020_4663"
    INDEX 01 00:47:27
  TRACK 43 AUDIO
    TITLE "0:"
    INDEX 01 00:48:34
  TRACK 44 AUDIO
    TITLE "14:cjc020_4664"
    INDEX 01 00:48:38
  TRACK 45 AUDIO
    TITLE "0:"
    INDEX 01 00:52:30
  TRACK 46 AUDIO
    TITLE "13:cjc020_4665"
    INDEX 01 00:53:11
  TRACK 47 AUDIO
    TITLE "0:"
    INDEX 01 00:54:17
  TRACK 48 AUDIO
    TITLE "14:cjc020_4666"
    INDEX 01 00:54:23
  TRACK 49 AUDIO
    TITLE "0:"
    INDEX 01 00:56:39
  TRACK 50 AUDIO
    TITLE "13:cjc020_4667"
    INDEX 01 00:57:17
  TRACK 51 AUDIO
    TITLE "0:"
    INDEX 01 00:58:09
  TRACK 52 AUDIO
    TITLE "14:cjc020_4668"
    INDEX 01 00:58:15
  TRACK 53 AUDIO
    TITLE "0:"
    INDEX 01 01:00:35
  TRACK 54 AUDIO
    TITLE "13:cjc020_4669"
    INDEX 01 01:01:15
  TRACK 55 AUDIO
    TITLE "0:"
    INDEX 01 01:02:26
  TRACK 56 AUDIO
    TITLE "14:cjc020_4670"
    INDEX 01 01:02:30
  TRACK 57 AUDIO
    TITLE "0:"
    INDEX 01 01:04:13
  TRACK 58 AUDIO
    TITLE "13:cjc020_4671"
    INDEX 01 01:04:64
  TRACK 59 AUDIO
    TITLE "0:"
    INDEX 01 01:05:69
  TRACK 60 AUDIO
    TITLE "14:cjc020_4672"
    INDEX 01 01:05:73
  TRACK 61 AUDIO
    TITLE "0:"
    INDEX 01 01:08:42
  TRACK 62 AUDIO
    TITLE "13:cjc020_4673"
    INDEX 01 01:09:24
  TRACK 63 AUDIO
    TITLE "0:"
    INDEX 01 01:10:35
  TRACK 64 AUDIO
    TITLE "14:cjc020_4674"
    INDEX 01 01:10:37
  TRACK 65 AUDIO
    TITLE "0:"
    INDEX 01 01:13:04
  TRACK 66 AUDIO
    TITLE "13:cjc020_4675"
    INDEX 01 01:13:57
  TRACK 67 AUDIO
    TITLE "0:"
    INDEX 01 01:14:59
  TRACK 68 AUDIO
    TITLE "14:cjc020_4676"
    INDEX 01 01:14:63
  TRACK 69 AUDIO
    TITLE "0:"
    INDEX 01 01:16:40
  TRACK 70 AUDIO
    TITLE "13:cjc020_4677"
    INDEX 01 01:17:20
  TRACK 71 AUDIO
    TITLE "0:"
    INDEX 01 01:18:25
  TRACK 72 AUDIO
    TITLE "14:cjc020_4678"
    INDEX 01 01:18:27
  TRACK 73 AUDIO
    TITLE "0:"
    INDEX 01 01:21:14
